<svg width="166" height="127" viewBox="0 0 166 127" fill="none" xmlns="http://www.w3.org/2000/svg">
<g filter="url(#filter0_d_247_54)">
<path d="M130.962 1.1748C141.175 1.22812 150.868 0.655116 161.042 1.45508C161.188 3.90821 161.774 6.92175 160.868 9.25488C159.414 12.8413 157.028 16.1348 154.841 19.3213C149.495 26.8145 144.308 34.4411 139.094 42.041C132.853 51.3276 126.52 60.5537 120.094 69.7178L117.335 73.6416C111.055 83.6682 104.415 93.2417 97.2281 102.642L96.4303 104.008C94.8195 106.729 93.1127 109.394 91.2769 111.973L90.3482 113.255C88.2149 115.722 86.7212 118.561 82.9879 118.308C75.8682 118.187 72.2146 110.815 68.5348 105.802C64.9081 99.8419 59.5476 94.0812 57.441 87.4014C57.8145 85.1082 59.3348 82.9075 60.5348 80.9609C65.148 74.0145 69.8549 67.1343 74.4947 60.2012V60.2002C79.3744 52.7074 84.3353 45.2683 89.3883 37.8955C89.5815 38.217 89.7751 38.5418 89.9684 38.8682C90.355 39.5211 90.7394 40.1842 91.1119 40.8555C91.2981 41.1911 91.4816 41.5293 91.6607 41.8691V41.8682C90.9442 40.5084 90.1615 39.181 89.3883 37.8945C94.1748 30.4415 99.1216 23.1216 104.188 15.8418C107.295 11.2552 109.868 5.98813 113.641 1.9082C119.281 1.00155 125.255 1.2548 130.962 1.1748ZM7.3746 1.17578C12.2013 -0.464219 17.9485 0.0690755 22.9752 0.135742C33.3484 0.775751 43.8418 2.02992 52.1217 8.89648C60.9081 15.7231 65.7214 25.5628 65.5348 36.7227C66.3481 47.5227 61.0946 57.6161 55.068 66.1895C52.868 69.1494 49.1611 72.8165 45.2144 70.5898C41.7479 67.3899 39.4947 62.7231 36.8414 58.8564C27.5482 44.5899 18.5616 30.123 9.16171 15.9365C7.20171 12.8832 4.93429 9.50892 4.05429 5.97559C3.66803 3.88244 5.40146 1.73575 7.3746 1.17578Z" fill="white"/>
</g>
<defs>
<filter id="filter0_d_247_54" x="0" y="0" width="165.363" height="126.323" filterUnits="userSpaceOnUse" color-interpolation-filters="sRGB">
<feFlood flood-opacity="0" result="BackgroundImageFix"/>
<feColorMatrix in="SourceAlpha" type="matrix" values="0 0 0 0 0 0 0 0 0 0 0 0 0 0 0 0 0 0 127 0" result="hardAlpha"/>
<feOffset dy="4"/>
<feGaussianBlur stdDeviation="2"/>
<feComposite in2="hardAlpha" operator="out"/>
<feColorMatrix type="matrix" values="0 0 0 0 0 0 0 0 0 0 0 0 0 0 0 0 0 0 0.25 0"/>
<feBlend mode="normal" in2="BackgroundImageFix" result="effect1_dropShadow_247_54"/>
<feBlend mode="normal" in="SourceGraphic" in2="effect1_dropShadow_247_54" result="shape"/>
</filter>
</defs>
</svg>